<mxfile host="65bd71144e">
    <diagram name="Page-1" id="Ht2n6xQlcjY3Ak6ic0hN">
        <mxGraphModel dx="483" dy="1165" grid="1" gridSize="10" guides="1" tooltips="1" connect="1" arrows="1" fold="1" page="1" pageScale="1" pageWidth="850" pageHeight="1100" math="0" shadow="0">
            <root>
                <mxCell id="0"/>
                <mxCell id="1" parent="0"/>
                <mxCell id="r4nOXz8cgClrwJKw3QsE-5" style="edgeStyle=orthogonalEdgeStyle;rounded=0;orthogonalLoop=1;jettySize=auto;html=1;entryX=0;entryY=0.5;entryDx=0;entryDy=0;entryPerimeter=0;startArrow=classicThin;startFill=1;" parent="1" source="r4nOXz8cgClrwJKw3QsE-1" target="r4nOXz8cgClrwJKw3QsE-3" edge="1">
                    <mxGeometry relative="1" as="geometry"/>
                </mxCell>
                <mxCell id="r4nOXz8cgClrwJKw3QsE-1" value="Left VM" style="whiteSpace=wrap;html=1;aspect=fixed;" parent="1" vertex="1">
                    <mxGeometry x="120" y="210" width="80" height="80" as="geometry"/>
                </mxCell>
                <mxCell id="r4nOXz8cgClrwJKw3QsE-6" style="edgeStyle=orthogonalEdgeStyle;rounded=0;orthogonalLoop=1;jettySize=auto;html=1;entryX=1;entryY=0.5;entryDx=0;entryDy=0;entryPerimeter=0;startArrow=classic;startFill=1;" parent="1" source="r4nOXz8cgClrwJKw3QsE-2" target="r4nOXz8cgClrwJKw3QsE-3" edge="1">
                    <mxGeometry relative="1" as="geometry"/>
                </mxCell>
                <mxCell id="r4nOXz8cgClrwJKw3QsE-2" value="Right VM" style="whiteSpace=wrap;html=1;aspect=fixed;" parent="1" vertex="1">
                    <mxGeometry x="280" y="210" width="80" height="80" as="geometry"/>
                </mxCell>
                <mxCell id="r4nOXz8cgClrwJKw3QsE-3" value="" style="fontColor=#0066CC;verticalAlign=top;verticalLabelPosition=bottom;labelPosition=center;align=center;html=1;outlineConnect=0;fillColor=#CCCCCC;strokeColor=#6881B3;gradientColor=none;gradientDirection=north;strokeWidth=2;shape=mxgraph.networks.switch;" parent="1" vertex="1">
                    <mxGeometry x="200" y="390" width="100" height="30" as="geometry"/>
                </mxCell>
                <mxCell id="r4nOXz8cgClrwJKw3QsE-8" value="veth" style="text;html=1;strokeColor=none;fillColor=none;align=center;verticalAlign=middle;whiteSpace=wrap;rounded=0;" parent="1" vertex="1">
                    <mxGeometry x="150" y="330" width="60" height="30" as="geometry"/>
                </mxCell>
                <mxCell id="r4nOXz8cgClrwJKw3QsE-9" value="veth" style="text;html=1;strokeColor=none;fillColor=none;align=center;verticalAlign=middle;whiteSpace=wrap;rounded=0;" parent="1" vertex="1">
                    <mxGeometry x="272" y="330" width="60" height="30" as="geometry"/>
                </mxCell>
                <mxCell id="r4nOXz8cgClrwJKw3QsE-11" value="testbr0" style="text;html=1;strokeColor=none;fillColor=none;align=center;verticalAlign=middle;whiteSpace=wrap;rounded=0;" parent="1" vertex="1">
                    <mxGeometry x="220" y="420" width="60" height="30" as="geometry"/>
                </mxCell>
                <mxCell id="r4nOXz8cgClrwJKw3QsE-12" value="left" style="text;html=1;strokeColor=none;fillColor=none;align=center;verticalAlign=middle;whiteSpace=wrap;rounded=0;" parent="1" vertex="1">
                    <mxGeometry x="110" y="290" width="60" height="30" as="geometry"/>
                </mxCell>
                <mxCell id="r4nOXz8cgClrwJKw3QsE-13" value="lefttestbr0" style="text;html=1;strokeColor=none;fillColor=none;align=center;verticalAlign=middle;whiteSpace=wrap;rounded=0;" parent="1" vertex="1">
                    <mxGeometry x="140" y="400" width="60" height="30" as="geometry"/>
                </mxCell>
                <mxCell id="r4nOXz8cgClrwJKw3QsE-14" value="righttestbr0" style="text;html=1;strokeColor=none;fillColor=none;align=center;verticalAlign=middle;whiteSpace=wrap;rounded=0;" parent="1" vertex="1">
                    <mxGeometry x="310" y="400" width="60" height="40" as="geometry"/>
                </mxCell>
                <mxCell id="r4nOXz8cgClrwJKw3QsE-15" value="right" style="text;html=1;strokeColor=none;fillColor=none;align=center;verticalAlign=middle;whiteSpace=wrap;rounded=0;" parent="1" vertex="1">
                    <mxGeometry x="320" y="290" width="60" height="30" as="geometry"/>
                </mxCell>
            </root>
        </mxGraphModel>
    </diagram>
</mxfile>